<svg viewBox="0 0 45 70" fill="none" xmlns="http://www.w3.org/2000/svg">
<g clip-path="url(#clip0_70:8)">
<path d="M19.4881 44.2406V41.859L19.5193 39.8853V38.377L19.4881 36.8428V33.8446C14.9139 33.3834 11.4161 31.6729 8.99449 28.7132C6.61133 25.715 5.41976 21.5829 5.41976 16.3169V15.0485L0 16.0863L8.01432 6.05398L16.0286 16.0863L10.6089 15.0485V16.3169C10.6089 19.8148 11.3776 22.6015 12.9152 24.6772C14.4911 26.7528 16.6821 28.0213 19.4881 28.4825V8.99449L13.953 10.1476L22.1979 0L30.4429 10.1476L24.9078 8.99449V28.4825C27.7138 28.0213 29.8855 26.7528 31.423 24.6772C32.999 22.5631 33.787 19.7763 33.787 16.3169V15.0485L28.4249 16.0863L36.3815 6.05398L44.3959 16.0863L38.9761 15.0485V16.3169C38.9761 21.5445 37.7653 25.6574 35.3437 28.6555C32.9221 31.6152 29.4435 33.345 24.9078 33.8446V38.7479L24.9302 40.3056L24.9078 41.859V44.2406H19.4881Z" fill="currentColor"/>
<path d="M25.2406 70C25.0189 68.7138 25.0189 68.0042 25.0189 66.0527V56.2954C25.0189 55.8962 24.9745 54.6544 24.9302 54.1222C25.3737 54.3439 25.4624 54.3439 26.039 54.61C31.5829 56.9607 35.0423 58.7791 39.5662 61.7063L42.4934 57.0494C37.2155 53.9448 32.3812 51.7715 27.0147 50.0862C31.2724 46.7598 33.5787 44.6753 36.0624 41.7924C37.2155 40.5062 37.2599 40.4619 38.0139 39.8853L35.4415 36.8694C34.5988 37.1355 33.7561 37.2686 32.4256 37.2686H24.9302V33.5874C24.9302 32.1238 24.9745 31.3255 25.1519 30.4828H19.2088C19.3862 31.4142 19.3862 32.0351 19.4306 33.6761V37.3129H12.0239C10.1168 37.3129 8.43141 37.1799 7.27827 36.9138V42.2803C8.91928 42.1029 9.40715 42.0585 11.9795 42.0585C27.9461 41.9698 27.9461 41.9698 28.2122 41.9255C28.7888 41.9255 28.7888 41.9255 29.1436 41.9255C25.3293 45.7397 20.5394 48.9774 15.3946 51.328C10.9151 53.3682 7.45568 54.5213 3.06488 55.4527C4.43978 57.4042 4.83894 58.1581 5.68162 60.287C11.0925 58.6017 14.8624 57.0937 18.1887 55.3196C18.7653 55.0092 19.0758 54.8318 19.5193 54.477C19.5193 55.6745 19.5193 56.4284 19.5193 56.7389V66.0527C19.5193 67.5163 19.4306 68.8025 19.2532 70H25.2406Z" fill="currentColor"/>
</g>
</svg>
